<?xml version="1.0" encoding="UTF-8"?>
<svg width="12px" height="12px" viewBox="0 0 12 12" version="1.1" xmlns="http://www.w3.org/2000/svg" xmlns:xlink="http://www.w3.org/1999/xlink">
    <!-- Generator: Sketch 63.1 (92452) - https://sketch.com -->
    <title>icon-open</title>
    <desc>Created with Sketch.</desc>
    <g id="Page-1" stroke="none" stroke-width="1" fill="none" fill-rule="evenodd">
        <g id="Supervisor---Programs" transform="translate(-800.000000, -195.000000)" fill="#000000" fill-rule="nonzero">
            <g id="Group-5" transform="translate(450.000000, 186.000000)">
                <g id="Group-8" transform="translate(340.000000, 0.000000)">
                    <g id="Group-7" transform="translate(10.000000, 9.000000)">
                        <path d="M11,0 L11.0193545,0.000186147798 C11.042681,0.000634893312 11.0659949,0.00189498016 11.0892501,0.00396640833 L11,0 C11.0506203,0 11.1003621,0.00376118706 11.1489612,0.0110193427 C11.165949,0.0136280806 11.1833753,0.0167021706 11.2007258,0.020240071 C11.2227461,0.0246397952 11.2444365,0.0298336259 11.2658396,0.0357209664 C11.2814633,0.0400977346 11.2968513,0.0447287157 11.3121425,0.0497380859 C11.3317977,0.0561224864 11.3515792,0.0633157362 11.3710585,0.0711039637 C11.3887956,0.0781964242 11.4060985,0.0856790475 11.4232215,0.0936733617 C11.4438914,0.103376643 11.4642939,0.11379392 11.484277,0.12487577 C11.4963944,0.131498828 11.5086131,0.138606922 11.5207088,0.145995454 C11.546275,0.1617187 11.5711307,0.178490093 11.5951593,0.196313506 C11.602603,0.201753444 11.6098424,0.207284482 11.6170223,0.212927691 C11.6801818,0.262551711 11.7374483,0.319818245 11.787214,0.383249919 L11.7071068,0.292893219 C11.7425008,0.328287271 11.774687,0.365674419 11.8036654,0.404693385 C11.8215099,0.428869307 11.8382813,0.453725048 11.8539326,0.479339815 C11.8613931,0.491386894 11.8685012,0.503605559 11.8753288,0.515937903 C11.8862061,0.535706055 11.8966234,0.556108604 11.9063462,0.576900852 C11.914321,0.593901505 11.9218036,0.611204351 11.9287745,0.628663976 C11.9366843,0.648420797 11.9438775,0.668202324 11.9504533,0.688263589 C11.9552713,0.703148659 11.9599023,0.718536724 11.9641549,0.734007034 C11.9701664,0.755563524 11.9753602,0.777253921 11.9798348,0.799205901 C11.9832978,0.816624737 11.9863719,0.83405099 11.9889822,0.851533135 C11.9905825,0.861764108 11.9920139,0.872545084 11.9932723,0.883378875 L11.9962979,0.913769205 C11.9978436,0.931734513 11.9989053,0.949733631 11.9994829,0.967745384 L12,1 L12,11 C12,11.5522847 11.5522847,12 11,12 C10.4871642,12 10.0644928,11.6139598 10.0067277,11.1166211 L10,11 L10,3.414 L1.70710678,11.7071068 C1.31658249,12.0976311 0.683417511,12.0976311 0.292893219,11.7071068 C-0.0675907428,11.3466228 -0.0953202783,10.7793918 0.209704612,10.3871006 L0.292893219,10.2928932 L8.584,2 L1,2 C0.487164161,2 0.0644928393,1.61395981 0.00672773133,1.11662113 L0,1 C0,0.487164161 0.38604019,0.0644928393 0.883378875,0.00672773133 L1,0 L11,0 Z" id="icon-open"></path>
                    </g>
                </g>
            </g>
        </g>
    </g>
</svg>