<?xml version="1.0" encoding="UTF-8"?>
<svg width="17px" height="17px" viewBox="0 0 17 17" version="1.1" xmlns="http://www.w3.org/2000/svg" xmlns:xlink="http://www.w3.org/1999/xlink">
    <!-- Generator: Sketch 63.1 (92452) - https://sketch.com -->
    <title>icon-emoji</title>
    <desc>Created with Sketch.</desc>
    <g id="Page-1" stroke="none" stroke-width="1" fill="none" fill-rule="evenodd">
        <g id="Supervisor---Goal-Detail" transform="translate(-1576.000000, -574.000000)" fill="#000000" fill-rule="nonzero">
            <g id="Group-17" transform="translate(1537.000000, 571.000000)">
                <path d="M47.5,3 C42.8044355,3 39,6.80443548 39,11.5 C39,16.1955645 42.8044355,20 47.5,20 C52.1955645,20 56,16.1955645 56,11.5 C56,6.80443548 52.1955645,3 47.5,3 Z M47.5,18.3548387 C43.7195565,18.3548387 40.6451613,15.2804435 40.6451613,11.5 C40.6451613,7.71955645 43.7195565,4.64516129 47.5,4.64516129 C51.2804435,4.64516129 54.3548387,7.71955645 54.3548387,11.5 C54.3548387,15.2804435 51.2804435,18.3548387 47.5,18.3548387 Z M44.7580645,10.9516129 C45.3647177,10.9516129 45.8548387,10.4614919 45.8548387,9.85483871 C45.8548387,9.24818548 45.3647177,8.75806452 44.7580645,8.75806452 C44.1514113,8.75806452 43.6612903,9.24818548 43.6612903,9.85483871 C43.6612903,10.4614919 44.1514113,10.9516129 44.7580645,10.9516129 Z M50.2419355,10.9516129 C50.8485887,10.9516129 51.3387097,10.4614919 51.3387097,9.85483871 C51.3387097,9.24818548 50.8485887,8.75806452 50.2419355,8.75806452 C49.6352823,8.75806452 49.1451613,9.24818548 49.1451613,9.85483871 C49.1451613,10.4614919 49.6352823,10.9516129 50.2419355,10.9516129 Z M50.3790323,13.4399194 C49.666129,14.2967742 48.6139113,14.7903226 47.5,14.7903226 C46.3860887,14.7903226 45.333871,14.3002016 44.6209677,13.4399194 C44.3296371,13.0903226 43.8086694,13.0457661 43.4625,13.3336694 C43.1129032,13.625 43.0683468,14.1425403 43.35625,14.4921371 C44.3844758,15.7260081 45.8959677,16.4320565 47.5,16.4320565 C49.1040323,16.4320565 50.6155242,15.7260081 51.64375,14.4921371 C51.9350806,14.1425403 51.8870968,13.625 51.5375,13.3336694 C51.1913306,13.0457661 50.6703629,13.0903226 50.3790323,13.4399194 L50.3790323,13.4399194 Z" id="icon-emoji"></path>
            </g>
        </g>
    </g>
</svg>