<?xml version="1.0" encoding="UTF-8"?>
<svg width="20px" height="20px" viewBox="0 0 20 20" version="1.1" xmlns="http://www.w3.org/2000/svg" xmlns:xlink="http://www.w3.org/1999/xlink">
    <!-- Generator: Sketch 63.1 (92452) - https://sketch.com -->
    <title>Combined Shape</title>
    <desc>Created with Sketch.</desc>
    <g id="Page-1" stroke="none" stroke-width="1" fill="none" fill-rule="evenodd">
        <g id="Supervisor---Home" transform="translate(-117.000000, -30.000000)" fill="#000000" fill-rule="nonzero">
            <g id="Group-18" transform="translate(10.000000, 10.000000)">
                <g id="Group-17" transform="translate(81.000000, 0.000000)">
                    <g id="Group-2" transform="translate(26.000000, 20.000000)">
                        <path d="M19,12 C19.5128358,12 19.9355072,12.3860402 19.9932723,12.8833789 L20,13 L20,17 C20,18.5976809 18.75108,19.9036609 17.1762728,19.9949073 L17,20 L3,20 C1.40231912,20 0.0963391206,18.75108 0.00509269341,17.1762728 L0,17 L0,13 C0,12.4477153 0.44771525,12 1,12 C1.51283584,12 1.93550716,12.3860402 1.99327227,12.8833789 L2,13 L2,17 C2,17.5128358 2.38604019,17.9355072 2.88337887,17.9932723 L3,18 L17,18 C17.5128358,18 17.9355072,17.6139598 17.9932723,17.1166211 L18,17 L18,13 C18,12.4477153 18.4477153,12 19,12 Z M10,-1.66533454e-15 L10.0193545,0.000186147798 C10.042681,0.000634893312 10.0659949,0.00189498016 10.0892501,0.00396640833 L10,-1.66533454e-15 C10.0506203,-1.66533454e-15 10.1003621,0.00376118706 10.1489612,0.0110193427 C10.165949,0.0136280806 10.1833753,0.0167021706 10.2007258,0.020240071 C10.2227461,0.0246397952 10.2444365,0.0298336259 10.2658396,0.0357209664 C10.2814633,0.0400977346 10.2968513,0.0447287157 10.3121425,0.0497380859 C10.3317977,0.0561224864 10.3515792,0.0633157362 10.3710585,0.0711039637 C10.3887956,0.0781964242 10.4060985,0.0856790475 10.4232215,0.0936733617 C10.4438914,0.103376643 10.4642939,0.11379392 10.484277,0.12487577 C10.4963944,0.131498828 10.5086131,0.138606922 10.5207088,0.145995454 C10.546275,0.1617187 10.5711307,0.178490093 10.5951593,0.196313506 C10.6012086,0.200717862 10.6070733,0.20517454 10.6128994,0.209704612 C10.6196628,0.215071126 10.6225624,0.217372104 10.625449,0.219688767 L10.7071068,0.292893219 L15.7071068,5.29289322 C16.0976311,5.68341751 16.0976311,6.31658249 15.7071068,6.70710678 C15.3466228,7.06759074 14.7793918,7.09532028 14.3871006,6.79029539 L14.2928932,6.70710678 L11,3.414 L11,13 C11,13.5522847 10.5522847,14 10,14 C9.48716416,14 9.06449284,13.6139598 9.00672773,13.1166211 L9,13 L9,3.414 L5.70710678,6.70710678 C5.34662282,7.06759074 4.77939176,7.09532028 4.38710056,6.79029539 L4.29289322,6.70710678 C3.93240926,6.34662282 3.90467972,5.77939176 4.20970461,5.38710056 L4.29289322,5.29289322 L9.29289322,0.292893219 L9.37455101,0.219688767 C9.37743756,0.217372104 9.38033724,0.215071126 9.38324992,0.212785965 L9.29289322,0.292893219 C9.32828727,0.257499166 9.36567442,0.225312953 9.40469339,0.196334578 C9.42886931,0.178490093 9.45372505,0.1617187 9.47933981,0.146067433 C9.49138689,0.138606922 9.50360556,0.131498828 9.5159379,0.124671174 C9.53570605,0.11379392 9.5561086,0.103376643 9.57690085,0.0936537803 C9.5939015,0.0856790475 9.61120435,0.0781964242 9.62866398,0.0712254916 C9.6484208,0.0633157362 9.66820232,0.0561224864 9.68826359,0.0495466818 C9.70314866,0.0447287157 9.71853672,0.0400977346 9.73400703,0.0358451423 C9.75556352,0.0298336259 9.77725392,0.0246397952 9.7992059,0.0201651536 C9.81662474,0.0167021706 9.83405099,0.0136280806 9.85153313,0.0110178009 C9.87050421,0.00811222997 9.89015296,0.00576611731 9.90996805,0.00399798209 C9.93433491,0.00186560354 9.95798023,0.000599315847 9.98163795,0.000167545257 C9.9872016,6.02394912e-05 9.99359377,-1.66533454e-15 10,-1.66533454e-15 Z" id="Combined-Shape"></path>
                    </g>
                </g>
            </g>
        </g>
    </g>
</svg>