<?xml version="1.0" encoding="UTF-8"?>
<svg width="24px" height="16px" viewBox="0 0 24 16" version="1.1" xmlns="http://www.w3.org/2000/svg" xmlns:xlink="http://www.w3.org/1999/xlink">
    <!-- Generator: Sketch 63.1 (92452) - https://sketch.com -->
    <title>icon-videos</title>
    <desc>Created with Sketch.</desc>
    <g id="Page-1" stroke="none" stroke-width="1" fill="none" fill-rule="evenodd">
        <g id="Admin---Home" transform="translate(-1293.000000, -228.000000)" fill="#000000" fill-rule="nonzero">
            <g id="Group-10" transform="translate(887.000000, 207.000000)">
                <g id="Group-8">
                    <g id="Group-5">
                        <g id="Group-9" transform="translate(406.000000, 21.000000)">
                            <path d="M14,0 C15.6568542,0 17,1.34314575 17,3 L17,3 L17,6.056 L22.4187618,2.18626653 C23.0491127,1.73601587 23.9130249,2.14371287 23.9938729,2.88618393 L24,3 L24,13 C24,13.8133726 23.0806303,14.2864967 22.4187618,13.8137335 L22.4187618,13.8137335 L17,9.943 L17,13 C17,14.5976809 15.75108,15.9036609 14.1762728,15.9949073 L14,16 L3,16 C1.34314575,16 0,14.6568542 0,13 L0,13 L0,3 C0,1.34314575 1.34314575,0 3,0 L3,0 Z M14,2 L3,2 C2.44771525,2 2,2.44771525 2,3 L2,3 L2,13 C2,13.5522847 2.44771525,14 3,14 L3,14 L14,14 C14.5522847,14 15,13.5522847 15,13 L15,13 L15,3 C15,2.44771525 14.5522847,2 14,2 L14,2 Z M22,4.942 L17.72,8 L22,11.057 L22,4.942 Z" id="icon-videos"></path>
                        </g>
                    </g>
                </g>
            </g>
        </g>
    </g>
</svg>