<?xml version="1.0" encoding="UTF-8"?>
<svg width="18px" height="22px" viewBox="0 0 18 22" version="1.1" xmlns="http://www.w3.org/2000/svg" xmlns:xlink="http://www.w3.org/1999/xlink">
    <!-- Generator: Sketch 63.1 (92452) - https://sketch.com -->
    <title>icon-research</title>
    <desc>Created with Sketch.</desc>
    <g id="Page-1" stroke="none" stroke-width="1" fill="none" fill-rule="evenodd">
        <g id="Admin---Home" transform="translate(-915.000000, -378.000000)" fill="#000000" fill-rule="nonzero">
            <g id="Group-10" transform="translate(887.000000, 207.000000)">
                <g id="Group-8">
                    <g id="Group-5">
                        <path d="M39,171 C39.0425909,171 39.0845598,171.002663 39.1257495,171.00783 C39.1359475,171.009224 39.1463778,171.010711 39.1567725,171.012361 C39.1883933,171.017204 39.2193064,171.023616 39.249662,171.031417 C39.2598053,171.03428 39.2698902,171.03705 39.2799252,171.039976 C39.3109399,171.048732 39.3413507,171.059226 39.3710585,171.071104 C39.3800191,171.07497 39.3890567,171.078734 39.3980377,171.082631 C39.4262995,171.094638 39.4536613,171.108068 39.4802859,171.122674 C39.4906553,171.128558 39.5012587,171.134613 39.5117542,171.140865 C39.5399066,171.157498 39.5670269,171.175549 39.5931738,171.194845 C39.6329776,171.224207 39.6712627,171.257049 39.7071068,171.292893 L39.6138331,171.210506 C39.6177282,171.213539 39.6216003,171.2166 39.625449,171.219689 L39.7071068,171.292893 L45.7071068,177.292893 C45.7364445,177.322231 45.7639678,177.353383 45.7894939,177.386167 C45.7951656,177.39354 45.8003651,177.400418 45.8054709,177.407358 C45.8244505,177.432973 45.8425024,177.460093 45.8592238,177.4881 C45.8653867,177.498741 45.8714418,177.509345 45.8772982,177.52005 C45.8919321,177.546339 45.9053618,177.5737 45.9175449,177.601729 C45.9212658,177.610943 45.9250304,177.619981 45.9286618,177.629072 C45.9407738,177.658649 45.9512678,177.68906 45.9602981,177.720094 C45.9629501,177.73011 45.9657203,177.740195 45.9683328,177.750326 C45.9763842,177.780694 45.9827964,177.811607 45.9877474,177.843005 C45.9958186,177.894759 46,177.947164 46,178 L45.9921695,177.87425 C45.9925508,177.877289 45.9929184,177.880332 45.9932723,177.883379 L46,178 L46,190 C46,191.656854 44.6568542,193 43,193 L43,193 L31,193 C29.3431458,193 28,191.656854 28,190 L28,190 L28,174 C28,172.343146 29.3431458,171 31,171 L31,171 L39,171 L39,171 Z M38,173 L31,173 C30.4477153,173 30,173.447715 30,174 L30,174 L30,190 C30,190.552285 30.4477153,191 31,191 L31,191 L43,191 C43.5522847,191 44,190.552285 44,190 L44,190 L44,179 L39,179 C38.4871642,179 38.0644928,178.61396 38.0067277,178.116621 L38,178 L38,173 Z M41,186 C41.5522847,186 42,186.447715 42,187 C42,187.512836 41.6139598,187.935507 41.1166211,187.993272 L41,188 L33,188 C32.4477153,188 32,187.552285 32,187 C32,186.487164 32.3860402,186.064493 32.8833789,186.006728 L33,186 L41,186 Z M41,182 C41.5522847,182 42,182.447715 42,183 C42,183.512836 41.6139598,183.935507 41.1166211,183.993272 L41,184 L33,184 C32.4477153,184 32,183.552285 32,183 C32,182.487164 32.3860402,182.064493 32.8833789,182.006728 L33,182 L41,182 Z M35,178 C35.5522847,178 36,178.447715 36,179 C36,179.512836 35.6139598,179.935507 35.1166211,179.993272 L35,180 L33,180 C32.4477153,180 32,179.552285 32,179 C32,178.487164 32.3860402,178.064493 32.8833789,178.006728 L33,178 L35,178 Z M40,174.415 L40,177 L42.586,177 L40,174.415 Z" id="icon-research"></path>
                    </g>
                </g>
            </g>
        </g>
    </g>
</svg>