<?xml version="1.0" encoding="UTF-8"?>
<svg width="22px" height="22px" viewBox="0 0 22 22" version="1.1" xmlns="http://www.w3.org/2000/svg" xmlns:xlink="http://www.w3.org/1999/xlink">
    <!-- Generator: Sketch 63.1 (92452) - https://sketch.com -->
    <title>icon-phone</title>
    <desc>Created with Sketch.</desc>
    <g id="Page-1" stroke="none" stroke-width="1" fill="none" fill-rule="evenodd">
        <path d="M5.98838007,-9.70958016e-05 L2.9981238,-9.70958016e-05 C2.15494654,0.000941083585 1.35202169,0.355637751 0.784330742,0.977530346 C0.216590085,1.5994774 -0.0636081121,2.43140726 0.0121820724,3.27009876 C0.358544372,6.53288217 1.4634242,9.65317797 3.23884392,12.3937979 C4.84818135,14.9264979 7.00172419,17.0800408 9.54180232,18.6941121 C12.2622496,20.4583633 15.3674444,21.5629922 18.6001015,21.9142468 C19.4594115,21.9920715 20.2937772,21.7098964 20.9162324,21.1388367 C21.5386875,20.5677769 21.8915443,19.760757 21.8881156,18.9160393 L21.8881238,15.9200983 C21.9256011,14.4220922 20.8161601,13.1126938 19.3078161,12.8999034 C18.4135864,12.7819225 17.5443419,12.5653847 16.7077286,12.2532011 L16.5132984,12.1876081 C15.4696673,11.8748904 14.3287876,12.1539659 13.5449847,12.929046 L12.825,13.648 L12.7052945,13.5736773 C10.9515418,12.4324192 9.45580292,10.9366803 8.31454478,9.18292761 L8.239,9.063 L8.95523058,8.3472051 C9.78269871,7.51044683 10.0462786,6.27454998 9.6341761,5.17823744 C9.32283737,4.34388026 9.10629959,3.47463575 8.98953818,2.58934083 C8.77753925,1.08913929 7.49414383,-0.0146249711 5.98838007,-9.70958016e-05 Z M2.99924065,1.99995087 L5.9981238,1.99995087 C6.50986575,1.99506096 6.93771477,2.36302585 7.00796545,2.86004989 C7.14319403,3.88569379 7.39630914,4.90177014 7.76122655,5.87970316 C7.89943899,6.24739672 7.81157903,6.65936233 7.53707149,6.9369592 L6.27101702,8.20299154 C5.95270401,8.52130454 5.88631641,9.01306898 6.10882929,9.40439283 C7.62135698,12.0644103 9.82381185,14.2668651 12.4838293,15.7793928 C12.8751531,16.0019057 13.3669176,15.9355181 13.6852306,15.6172051 L14.9552306,14.3472051 C15.2288598,14.0766431 15.6408254,13.9887831 16.0062629,14.1261506 C16.986452,14.491913 18.0025283,14.7450281 19.0373663,14.8815127 C19.5312128,14.9512234 19.9010265,15.3876896 19.8884315,15.8952933 L19.8881238,18.9200983 C19.8892749,19.2057299 19.771656,19.4747365 19.564171,19.6650897 C19.3566859,19.855443 19.078564,19.9495014 18.798132,19.9241573 C15.894471,19.608486 13.0879963,18.6101225 10.622225,17.0110787 C8.32217965,15.5494836 6.37873854,13.6060425 4.92213758,11.3137768 C3.31277951,8.82942663 2.31418923,6.00930358 2.00253253,3.07449875 C1.97880213,2.81053404 2.07220153,2.53322409 2.26144841,2.3259084 C2.45070496,2.11858213 2.71843013,2.000313 2.99924065,1.99995087 Z" id="icon-phone" fill="#000000" fill-rule="nonzero"></path>
    </g>
</svg>