<?xml version="1.0" encoding="UTF-8"?>
<svg width="20px" height="22px" viewBox="0 0 20 22" version="1.1" xmlns="http://www.w3.org/2000/svg" xmlns:xlink="http://www.w3.org/1999/xlink">
    <!-- Generator: Sketch 63.1 (92452) - https://sketch.com -->
    <title>icon-delete</title>
    <desc>Created with Sketch.</desc>
    <g id="Page-1" stroke="none" stroke-width="1" fill="none" fill-rule="evenodd">
        <g id="Supervisor---Program-Detail---Settings" transform="translate(-562.000000, -722.000000)" fill="#000000" fill-rule="nonzero">
            <g id="Group-2" transform="translate(40.000000, 55.000000)">
                <g id="Group-12" transform="translate(35.000000, 443.000000)">
                    <g id="Group-9">
                        <g id="Group-8" transform="translate(0.000000, 52.000000)">
                            <g id="Group-7" transform="translate(131.000000, 0.000000)">
                                <path d="M368,172 C369.597681,172 370.903661,173.24892 370.994907,174.823727 L371,175 L371,176 L375,176 C375.552285,176 376,176.447715 376,177 C376,177.512836 375.61396,177.935507 375.116621,177.993272 L375,178 L374,178 L374,191 C374,192.597681 372.75108,193.903661 371.176273,193.994907 L371,194 L361,194 C359.402319,194 358.096339,192.75108 358.005093,191.176273 L358,191 L358,178 L357,178 C356.447715,178 356,177.552285 356,177 C356,176.487164 356.38604,176.064493 356.883379,176.006728 L357,176 L361,176 L361,175 C361,173.402319 362.24892,172.096339 363.823727,172.005093 L364,172 L368,172 Z M360,178 L360,191 C360,191.512836 360.38604,191.935507 360.883379,191.993272 L361,192 L371,192 C371.512836,192 371.935507,191.61396 371.993272,191.116621 L372,191 L372,178 L360,178 Z M368,174 L364,174 C363.487164,174 363.064493,174.38604 363.006728,174.883379 L363,175 L363,176 L369,176 L369,175 C369,174.487164 368.61396,174.064493 368.116621,174.006728 L368,174 Z" id="icon-delete"></path>
                            </g>
                        </g>
                    </g>
                </g>
            </g>
        </g>
    </g>
</svg>