<?xml version="1.0" encoding="UTF-8"?>
<svg width="17px" height="19px" viewBox="0 0 17 19" version="1.1" xmlns="http://www.w3.org/2000/svg" xmlns:xlink="http://www.w3.org/1999/xlink">
    <!-- Generator: Sketch 63.1 (92452) - https://sketch.com -->
    <title>icon-attachment</title>
    <desc>Created with Sketch.</desc>
    <g id="Page-1" stroke="none" stroke-width="1" fill="none" fill-rule="evenodd">
        <g id="Supervisor---Goal-Detail" transform="translate(-1539.000000, -573.000000)" fill="#000000" fill-rule="nonzero">
            <g id="Group-17" transform="translate(1537.000000, 571.000000)">
                <path d="M6.5,17 C3.46,17 1,14.54 1,11.5 C1,8.46 3.46,6 6.5,6 L17,6 C19.21,6 21,7.79 21,10 C21,12.21 19.21,14 17,14 L8.5,14 C7.12,14 6,12.88 6,11.5 C6,10.12 7.12,9 8.5,9 L16,9 L16,10.5 L8.5,10.5 C7.95,10.5 7.5,10.95 7.5,11.5 C7.5,12.05 7.95,12.5 8.5,12.5 L17,12.5 C18.38,12.5 19.5,11.38 19.5,10 C19.5,8.62 18.38,7.5 17,7.5 L6.5,7.5 C4.29,7.5 2.5,9.29 2.5,11.5 C2.5,13.71 4.29,15.5 6.5,15.5 L16,15.5 L16,17 L6.5,17 Z" id="icon-attachment" transform="translate(11.000000, 11.500000) rotate(-45.000000) translate(-11.000000, -11.500000) "></path>
            </g>
        </g>
    </g>
</svg>