<?xml version="1.0" encoding="UTF-8"?>
<svg width="22px" height="18px" viewBox="0 0 22 18" version="1.1" xmlns="http://www.w3.org/2000/svg" xmlns:xlink="http://www.w3.org/1999/xlink">
    <!-- Generator: Sketch 63.1 (92452) - https://sketch.com -->
    <title>icon-email</title>
    <desc>Created with Sketch.</desc>
    <g id="Page-1" stroke="none" stroke-width="1" fill="none" fill-rule="evenodd">
        <path d="M19,9.83189429e-05 C20.6522847,9.83189429e-05 22,1.34781357 22,3.00009832 L22,3.00009832 L22,15.0000983 C22,16.6523831 20.6522847,18.0000983 19,18.0000983 L19,18.0000983 L3,18.0000983 C1.34771525,18.0000983 0,16.6523831 0,15.0000983 L0,15.0000983 L0,3.00009832 C0,1.34781357 1.34771525,9.83189429e-05 3,9.83189429e-05 L3,9.83189429e-05 Z M20,4.92009832 L11.5734623,10.8193302 C11.2674,11.0335739 10.8712918,11.0573787 10.5452193,10.8907448 L10.4265377,10.8193302 L2,4.92109832 L2,15.0000983 C2,15.5086911 2.38998022,15.9349993 2.88422317,15.9933056 L3,16.0000983 L19,16.0000983 C19.5477153,16.0000983 20,15.5478136 20,15.0000983 L20,15.0000983 L20,4.92009832 Z M19,2.00009832 L3,2.00009832 C2.61200142,2.00009832 2.27189207,2.22706523 2.10652962,2.55414137 L11,8.779 L19.8934704,2.55414137 C19.7281079,2.22706523 19.3879986,2.00009832 19,2.00009832 L19,2.00009832 Z" id="icon-email" fill="#000000" fill-rule="nonzero"></path>
    </g>
</svg>