<?xml version="1.0" encoding="UTF-8"?>
<svg width="20px" height="20px" viewBox="0 0 20 20" version="1.1" xmlns="http://www.w3.org/2000/svg" xmlns:xlink="http://www.w3.org/1999/xlink">
    <!-- Generator: Sketch 63.1 (92452) - https://sketch.com -->
    <title>icon-faq</title>
    <desc>Created with Sketch.</desc>
    <g id="Page-1" stroke="none" stroke-width="1" fill="none" fill-rule="evenodd">
        <g id="Admin---Home" transform="translate(-1294.000000, -380.000000)" fill="#000000" fill-rule="nonzero">
            <g id="Group-10" transform="translate(887.000000, 207.000000)">
                <g id="Group-8">
                    <g id="Group-5">
                        <path d="M418.055092,173.001519 L417.5,172.999969 C416.02521,172.996183 414.56783,173.34136 413.249147,174.00743 C410.034869,175.613864 408.001392,178.902039 408,182.499642 L408.006293,182.867989 C408.046888,183.971501 408.282488,185.059355 408.701235,186.080533 L408.824,186.364 L407.051317,191.683801 L407.021917,191.790078 C406.858422,192.531096 407.570004,193.197453 408.316228,192.948712 L413.635,191.175 L413.919505,191.298794 C415.0542,191.764068 416.271466,192.003235 417.502607,192.000025 C421.097989,191.998636 424.386165,189.965159 425.994505,186.747087 C426.658668,185.432198 427.003845,183.974819 427.000057,182.497443 L427.000057,182.000028 C426.732301,177.120192 422.879836,173.267728 418.055092,173.001519 Z M417.497414,174.999997 L417.971,175 L417.944908,174.998481 C421.751783,175.208529 424.7915,178.248246 425.001547,182.05512 L425.000028,182.500028 C425.003037,183.665004 424.731456,184.811655 424.207402,185.849175 C422.935753,188.393553 420.339826,189.99893 417.499613,190.000029 C416.335027,190.003062 415.188382,189.731489 414.150853,189.20743 L414.028962,189.155681 C413.821458,189.083393 413.59456,189.081082 413.383772,189.151345 L409.581,190.419 L410.848683,186.616256 C410.932999,186.36331 410.912808,186.087167 410.792598,185.849175 C410.26854,184.811646 409.996966,183.665001 409.999997,182.502636 C410.001099,179.660203 411.606475,177.064275 414.147059,175.794533 C415.188373,175.268573 416.335024,174.996991 417.497414,174.999997 Z" id="icon-faq"></path>
                    </g>
                </g>
            </g>
        </g>
    </g>
</svg>