<?xml version="1.0" encoding="UTF-8"?>
<svg width="18px" height="22px" viewBox="0 0 18 22" version="1.1" xmlns="http://www.w3.org/2000/svg" xmlns:xlink="http://www.w3.org/1999/xlink">
    <!-- Generator: Sketch 63.1 (92452) - https://sketch.com -->
    <title>icon-guides</title>
    <desc>Created with Sketch.</desc>
    <g id="Page-1" stroke="none" stroke-width="1" fill="none" fill-rule="evenodd">
        <g id="Admin---Home" transform="translate(-915.000000, -302.000000)" fill="#000000" fill-rule="nonzero">
            <g id="Group-10" transform="translate(887.000000, 207.000000)">
                <g id="Group-8">
                    <g id="Group-5">
                        <path d="M45,95 C45.5522847,95 46,95.4477153 46,96 L46,96 L46,116 C46,116.552285 45.5522847,117 45,117 L45,117 L31.5,117 C29.5670034,117 28,115.432997 28,113.5 L28,113.5 L28,98.5 C28,96.5670034 29.5670034,95 31.5,95 L31.5,95 Z M44,112 L31.5,112 C30.7203039,112 30.0795513,112.594888 30.0068666,113.35554 L30,113.5 C30,114.328427 30.6715729,115 31.5,115 L31.5,115 L44,115 L44,112 Z M44,97 L31.5,97 C30.7203039,97 30.0795513,97.5948881 30.0068666,98.35554 L30.0068666,98.35554 L30,98.5 L29.9999667,110.336831 C30.4000331,110.146775 30.8418751,110.030382 31.3079648,110.005179 L31.5,110 L44,110 L44,97 Z" id="icon-guides"></path>
                    </g>
                </g>
            </g>
        </g>
    </g>
</svg>