<?xml version="1.0" encoding="UTF-8"?>
<svg width="16px" height="16px" viewBox="0 0 16 16" version="1.1" xmlns="http://www.w3.org/2000/svg" xmlns:xlink="http://www.w3.org/1999/xlink">
    <!-- Generator: Sketch 63.1 (92452) - https://sketch.com -->
    <title>icon-edit</title>
    <desc>Created with Sketch.</desc>
    <g id="Page-1" stroke="none" stroke-width="1" fill="none" fill-rule="evenodd">
        <g id="Admin---Home" transform="translate(-795.000000, -500.000000)" fill="#000000" fill-rule="nonzero">
            <path d="M796.004208,515.94226 L796.094208,515.94226 L800.264208,515.562243 C800.721004,515.516739 801.148243,515.315478 801.474208,514.992243 L810.474208,505.992243 C811.201498,505.223905 811.170194,504.01201 810.404208,503.282243 L807.664208,500.542243 C806.923932,499.846897 805.780031,499.816795 805.004208,500.472243 L796.004208,509.472243 C795.680973,509.798208 795.479712,510.225447 795.434208,510.682243 L795.004208,514.852243 C794.976934,515.148788 795.083245,515.44206 795.294208,515.652243 C795.482927,515.83943 795.738405,515.94378 796.004208,515.94226 Z M806.274208,501.942243 L809.004208,504.672243 L807.004208,506.622243 L804.324208,503.942243 L806.274208,501.942243 Z M797.374208,510.852243 L803.004208,505.262243 L805.704208,507.962243 L800.104208,513.562243 L797.104208,513.842243 L797.374208,510.852243 Z" id="icon-edit"></path>
        </g>
    </g>
</svg>